# AST/ASF file generated using VICON BodyLanguage
# -----------------------------------------------
:version 1.10
:name VICON
:units
  mass 1.0
  length 0.45
  angle deg
:documentation
   .ast/.asf automatically generated from VICON data using
   VICON BodyBuilder and BodyLanguage model FoxedUp or BRILLIANT.MOD
:root
   order TX TY TZ RX RY RZ
   axis XYZ
   position 0 0 0  
   orientation 0 0 0 
:bonedata
  begin
     id 1 
     name lhipjoint
     direction 0.522423 -0.726805 0.445902 
     length 2.25074 
     axis 0 0 0  XYZ
  end
  begin
     id 2 
     name lfemur
     direction 0.34202 -0.939693 0  
     length 6.54609  
     axis 0 0 20  XYZ
    dof rx ry rz
    limits (-160.0 20.0)
           (-70.0 70.0)
           (-60.0 70.0)
  end
  begin
     id 3 
     name ltibia
     direction 0.34202 -0.939693 0   
     length 7.7528   
     axis 0 0 20   XYZ
    dof rx
    limits (-10.0 170.0)
  end
  begin
     id 4 
     name lfoot
     direction 0.143696 -0.394801 0.90746   
     length 1.73269   
     axis -90 7.62852e-016 20   XYZ
    dof rx rz
    limits (-45.0 90.0)
           (-70.0 20.0)
  end
  begin
     id 5 
     name ltoes
     direction 1.53633e-011 -4.21912e-011 1   
     length 0.858383   
     axis -90 7.62852e-016 20   XYZ
    dof rx
    limits (-90.0 20.0)
  end
  begin
     id 6 
     name rhipjoint
     direction -0.515943 -0.73016 0.447961   
     length 2.2404  
     axis 0 0 0  XYZ 
  end
  begin
     id 7 
     name rfemur
     direction -0.34202 -0.939693 0   
     length 6.84377   
     axis 0 0 -20   XYZ
    dof rx ry rz
    limits (-160.0 20.0)
           (-70.0 70.0)
           (-70.0 60.0)
  end
  begin
     id 8 
     name rtibia
     direction -0.34202 -0.939693 0   
     length 7.57596   
     axis 0 0 -20   XYZ
    dof rx
    limits (-10.0 170.0)
 end
 begin
     id 9 
     name rfoot
     direction -0.0999372 -0.274575 0.956358   
     length 1.78783  
     axis -90 -7.62852e-016 -20   XYZ
    dof rx rz
    limits (-45.0 90.0)
           (-20.0 70.0)
  end
  begin
     id 10 
     name rtoes
     direction -1.53535e-011 -4.21895e-011 1   
     length 0.898614   
     axis -90 -7.62852e-016 -20   XYZ
    dof rx
    limits (-90.0 20.0)
  end
  begin
     id 11 
     name lowerback
     direction -0.011775 0.996164 -0.0867116   
     length 1.91499   
     axis 0 0 0   XYZ
    dof rx ry rz
    limits (-20.0 45.0)
           (-30.0 30.0)
           (-30.0 30.0)
  end
  begin
     id 12 
     name upperback
     direction -0.00189771 0.999673 -0.0254833   
     length 1.92213   
     axis 0 0 0   XYZ
    dof rx ry rz
    limits (-20.0 45.0)
           (-30.0 30.0)
           (-30.0 30.0)
  end
  begin
     id 13 
     name thorax
     direction 0.00335995 0.999878 0.0152401   
     length 1.93138   
     axis 0 0 0   XYZ
    dof rx ry rz
    limits (-20.0 45.0)
           (-30.0 30.0)
           (-30.0 30.0)
  end
  begin
     id 14 
     name lowerneck
     direction 0.00233191 0.998509 0.0545404   
     length 1.59408   
     axis 0 0 0   XYZ
    dof rx ry rz
    limits (-20.0 45.0)
           (-30.0 30.0)
           (-30.0 30.0)
  end
  begin
     id 15 
     name upperneck
     direction 0.07881 0.9956 -0.0506934   
     length 1.59344   
     axis 0 0 0   XYZ
    dof rx ry rz
    limits (-20.0 45.0)
           (-30.0 30.0)
           (-30.0 30.0)
  end
  begin
     id 16
     name head
     direction 0.0261681 0.999378 -0.0236299  
     length 1.60935  
     axis 0 0 0   XYZ
    dof rx ry rz
    limits (-20.0 45.0)
           (-30.0 30.0)
           (-30.0 30.0)
  end
  begin
     id 17 
     name lclavicle
     direction 0.96643 0.252035 0.0499195  
     length 3.82153  
     axis 0 0 0   XYZ
    dof ry rz
    limits (-20.0 10.0)
           (0.0 20.0)
  end
  begin
     id 18 
     name lhumerus
     direction 1 -4.48967e-011 -2.01614e-018   
     length 4.87796   
     axis 180 -30 -90   XYZ
    dof rx ry rz
    limits (-60.0 90.0)
           (-90.0 90.0)
           (-90.0 90.0)
  end
  begin
     id 19
     name lradius
     direction 1 -4.48958e-011 3.1409e-027   
     length 3.23169   
     axis 180 -30 -90   XYZ
    dof rx
    limits (-10.0 170.0)
  end
  begin
     id 20
     name lwrist
     direction 1 -4.48924e-011 1.0365e-027   
     length 1.61584   
     axis -2.56395e-016 90 90   XYZ
    dof ry
    limits (-180.0 0.0)
 end
  begin
     id 21 
     name lhand
     direction 1 -4.49055e-011 2.09488e-027   
     length 0.731324   
     axis -1.32723e-015 90 90   XYZ
    dof rx rz
    limits (-90.0 90.0)
           (-45.0 45.0)
  end
  begin
     id 22 
     name lfingers
     direction 1 -4.48935e-011 4.14981e-027   
     length 0.589612   
     axis -2.6545e-015 90 90   XYZ
    dof rx
    limits (0.0 90.0)
  end
  begin
     id 23
     name lthumb
     direction 0.707107 -6.35097e-011 0.707107   
     length 0.846569   
     axis -90 45 5.05613e-014   XYZ
    dof rx rz
    limits (-45.0 45.0)
           (-45.0 45.0)
  end
  begin
     id 24 
     name rclavicle
     direction -0.979337 0.201016 0.0221522   
     length 3.73827  
     axis 0 0 0   XYZ 
    dof ry rz
    limits (-10.0 20.0)
           (-20.0 0.0)
  end
  begin
     id 25 
     name rhumerus
     direction -1 -4.48971e-011 1.65907e-027  
     length 4.9143   
     axis 180 30 90   XYZ
    dof rx ry rz
    limits (-90.0 60.0)
           (-90.0 90.0)
           (-90.0 90.0)
  end
  begin
     id 26 
     name rradius
     direction -1 -4.4894e-011 2.17871e-028   
     length 3.29093   
     axis 180 30 90   XYZ
    dof rx
    limits (-10.0 170.0)
  end
  begin
     id 27 
     name rwrist
     direction -1 -4.48971e-011 1.04038e-027   
     length 1.64546   
     axis -2.56395e-016 -90 -90   XYZ
    dof ry
    limits (-180.0 0.0)
  end
  begin
     id 28
     name rhand
     direction -1 -4.49017e-011 2.08843e-027   
     length 0.54512   
     axis -1.32723e-015 -90 -90   XYZ
    dof rx rz
    limits (-90.0 90.0)
           (-45.0 45.0)
  end
  begin
     id 29
     name rfingers
     direction -1 -4.48918e-011 4.1439e-027   
     length 0.43949   
     axis -2.6545e-015 -90 -90   XYZ
    dof rx
    limits (0.0 90.0)
  end
  begin
     id 30
     name rthumb
     direction -0.707107 -6.35065e-011 0.707107   
     length 0.631022   
     axis -90 -45 -5.05613e-014   XYZ
    dof rx rz
    limits (-45.0 45.0)
           (-45.0 45.0)
  end
:hierarchy
  begin
    root lhipjoint rhipjoint lowerback
    lhipjoint lfemur
    lfemur ltibia
    ltibia lfoot
    lfoot ltoes
    rhipjoint rfemur
    rfemur rtibia
    rtibia rfoot
    rfoot rtoes
    lowerback upperback
    upperback thorax
    thorax lowerneck lclavicle rclavicle
    lowerneck upperneck
    upperneck head
    lclavicle lhumerus
    lhumerus lradius
    lradius lwrist
    lwrist lhand lthumb
    lhand lfingers
    rclavicle rhumerus
    rhumerus rradius
    rradius rwrist
    rwrist rhand rthumb
    rhand rfingers
  end

#!OML:ASF H:\BreakDance\Project 1\Capture day 1\Session 1\Male.ASF
:FULLY-SPECIFIED
:DEGREES
3515
root -14.7194 11.3586 0.723733 649.999 44.3039 -834.567
lowerback 16.1396 -10.0267 0.308166
upperback 11.5574 -12.6563 2.68214
thorax 4.13397 -6.39086 4.14466
lowerneck -5.48625 -1.9314 0.343644
upperneck 1.47428 -3.20925 23.9984
head 1.81795 -1.00569 7.21375
rclavicle 2.22639e-014 -3.97569e-014
rhumerus -46.1103 -1.28867 -26.2931
rradius 33.1174
rwrist -7.25697
rhand -33.6865 -378.102
rfingers 7.12502
rthumb -6.87694 1032.03
lclavicle 2.22639e-014 -3.97569e-014
lhumerus 0.979117 31.5416 42.6106
lradius 23.5592
lwrist 20.5439
lhand -36.8187 -38.6954
lfingers 7.12502
lthumb -9.89978 -8.94816
rfemur -71.8891 11.8694 3.07298
rtibia 101.848
rfoot -1.57184 -2.13914
rtoes 22.9111
lfemur 461.287 157.97 141.978
ltibia 83.039
lfoot -4.60251 4.95827
ltoes -66.9854
3516
root -14.6073 11.4521 0.834147 647.189 44.4266 -838.954
lowerback 16.0331 -10.7937 0.377088
upperback 11.5035 -13.6674 3.07968
thorax 4.31421 -6.9303 4.60039
lowerneck -5.46798 -1.89584 0.265118
upperneck 1.10254 -3.07197 24.0526
head 1.6922 -0.967363 7.24914
rclavicle -2.22639e-014 -1.59028e-014
rhumerus -47.7492 -2.79081 -27.1431
rradius 31.694
rwrist -6.29598
rhand -33.9907 -378.203
rfingers 7.12502
rthumb -7.17059 1031.94
lclavicle -2.22639e-014 -1.59028e-014
lhumerus 0.935395 31.7742 42.0657
lradius 23.6646
lwrist 20.4093
lhand -36.5343 -39.2153
lfingers 7.12502
lthumb -9.62532 -9.45516
rfemur -74.2183 14.4452 -1.48995
rtibia 102.224
rfoot -2.65453 -0.743467
rtoes 21.3318
lfemur 462.647 157.109 142.457
ltibia 81.034
lfoot -4.7585 7.19611
ltoes -66.984
3517
root -14.4906 11.5322 0.936835 644.604 44.378 -843.071
lowerback 15.9408 -11.5478 0.499075
upperback 11.3912 -14.6616 3.49231
thorax 4.42845 -7.46147 5.0456
lowerneck -5.4063 -1.82999 0.172006
upperneck 0.744287 -2.88873 24.0074
head 1.55453 -0.910353 7.25605
rclavicle 5.725e-014 4.77083e-014
rhumerus -49.1588 -4.12839 -27.8168
rradius 30.477
rwrist -5.41794
rhand -34.261 -378.882
rfingers 7.12502
rthumb -7.43152 1031.27
lclavicle 5.725e-014 4.77083e-014
lhumerus 0.55782 31.7841 41.3706
lradius 23.857
lwrist 20.4701
lhand -36.3323 -39.681
lfingers 7.12502
lthumb -9.43047 -9.91194
rfemur -76.8396 16.5143 -6.09849
rtibia 102.662
rfoot -4.03133 0.713575
rtoes 21.1244
lfemur 463.773 156.121 142.601
ltibia 79.2228
lfoot -4.26731 9.43365
ltoes -66.4422
3518
root -14.3742 11.5988 1.03016 642.398 44.1461 -846.738
lowerback 15.8799 -12.2522 0.691465
upperback 11.2076 -15.5875 3.93041
thorax 4.44366 -7.95718 5.48702
lowerneck -5.29973 -1.74299 0.0860001
upperneck 0.42421 -2.68052 23.8489
head 1.41409 -0.843152 7.22519
rclavicle -1.59028e-014 0
rhumerus -50.2923 -5.2491 -28.3556
rradius 29.4772
rwrist -4.74479
rhand -34.3694 -379.969
rfingers 7.12502
rthumb -7.53613 1030.19
lclavicle -1.59028e-014 0
lhumerus -0.153969 31.5611 40.5401
lradius 24.1302
lwrist 20.7423
lhand -36.2095 -40.0841
lfingers 7.12502
lthumb -9.31198 -10.3098
rfemur -79.7422 18.0801 -10.6073
rtibia 103.077
rfoot -5.61595 1.99575
rtoes 21.6875
lfemur 464.489 154.903 142.307
ltibia 77.7293
lfoot -3.27141 11.7134
ltoes -65.3176
3519
root -14.2632 11.654 1.1128 640.674 43.7348 -849.863
lowerback 15.8577 -12.8811 0.962855
upperback 10.9514 -16.4085 4.42007
thorax 4.35324 -8.39962 5.95092
lowerneck -5.1815 -1.61131 -0.0199195
upperneck 0.149565 -2.41697 23.599
head 1.27642 -0.746708 7.16948
rclavicle -5.40694e-014 3.18055e-014
rhumerus -51.0953 -6.17215 -28.792
rradius 28.6901
rwrist -4.28268
rhand -34.2633 -381.349
rfingers 7.12502
rthumb -7.43369 1028.8
lclavicle -5.40694e-014 3.18055e-014
lhumerus -1.14641 31.1598 39.6352
lradius 24.4671
lwrist 21.1927
lhand -36.1862 -40.4301
lfingers 7.12502
lthumb -9.28944 -10.6548
rfemur -82.9257 19.0668 -14.8685
rtibia 103.389
rfoot -7.26521 3.06333
rtoes 23.5194
lfemur 464.703 153.467 141.592
ltibia 76.5789
lfoot -1.84289 14.2492
ltoes -63.6651
3520
root -14.1612 11.7005 1.18203 639.495 43.1727 -852.334
lowerback 15.9093 -13.4011 1.27907
upperback 10.6456 -17.0786 4.96376
thorax 4.16811 -8.76743 6.46207
lowerneck -5.10184 -1.42906 -0.15333
upperneck -0.0657219 -2.09658 23.2611
head 1.15494 -0.615491 7.0912
rclavicle 4.13472e-014 1.27222e-014
rhumerus -51.5174 -6.93378 -29.1831
rradius 28.1104
rwrist -4.00225
rhand -33.9853 -382.913
rfingers 7.12502
rthumb -7.16535 1027.23
lclavicle 4.13472e-014 1.27222e-014
lhumerus -2.35898 30.6413 38.7117
lradius 24.8595
lwrist 21.8028
lhand -36.2707 -40.7411
lfingers 7.12502
lthumb -9.371 -10.9694
rfemur -86.2944 19.4662 -18.6392
rtibia 103.503
rfoot -9.05111 3.64113
rtoes 24.6728
lfemur 464.46 151.841 140.56
ltibia 75.6969
lfoot 0.0181898 17.2154
ltoes -61.4938
3521
root -14.0706 11.7429 1.23342 638.871 42.5211 -854.111
lowerback 16.0214 -13.7907 1.59821
upperback 10.3339 -17.5703 5.5331
thorax 3.94043 -9.04674 7.00306
lowerneck -4.97308 -1.21032 -0.374899
upperneck -0.351648 -1.70481 23.0092
head 0.998872 -0.454785 7.05816
rclavicle -3.18055e-015 -9.70069e-014
rhumerus -51.5298 -7.58787 -29.6306
rradius 27.7007
rwrist -3.89579
rhand -33.6865 -384.445
rfingers 7.12502
rthumb -6.87698 1025.69
lclavicle -3.18055e-015 -9.70069e-014
lhumerus -3.69578 30.078 37.8174
lradius 25.2997
lwrist 22.5321
lhand -36.4584 -41.0501
lfingers 7.12502
lthumb -9.55206 -11.2866
rfemur -89.7577 19.3007 -21.7833
rtibia 103.336
rfoot -10.8834 3.76887
rtoes 26.1868
lfemur 463.89 150.126 139.324
ltibia 74.9251
lfoot 2.4404 20.3041
ltoes -58.8325
